<svg xmlns="http://www.w3.org/2000/svg" viewBox="0 0 512 512" role="img" aria-label="AU Fast Food Value icon"><defs><linearGradient id="g" x1="0" y1="0" x2="1" y2="1"><stop stop-color="#2563eb"/><stop offset="1" stop-color="#10b981"/></linearGradient></defs><rect width="512" height="512" rx="120" fill="url(#g)"/><circle cx="256" cy="256" r="158" fill="rgba(255,255,255,.18)"/><path fill="#fff" d="M279 126v38c38 7 65 30 65 65h-58c0-15-13-25-34-25-20 0-32 8-32 21 0 15 15 21 48 31 45 13 81 31 81 78 0 39-28 66-70 74v42h-47v-40c-49-7-76-37-77-75h58c1 18 18 31 43 31 23 0 36-10 36-25 0-16-15-23-52-34-42-13-78-31-78-77 0-36 27-62 70-68v-36h47z"/></svg>